<?xml version="1.0" encoding="UTF-8"?>
<svg xmlns="http://www.w3.org/2000/svg" xmlns:xlink="http://www.w3.org/1999/xlink" width="20px" height="20px" viewBox="0 0 20 20" version="1.1">
<g id="surface1">
<path style=" stroke:none;fill-rule:nonzero;fill:rgb(0%,0%,0%);fill-opacity:1;" d="M 10 20 C 12.671875 20 15.183594 18.960938 17.070312 17.070312 C 18.960938 15.183594 20 12.671875 20 10 C 20 7.328125 18.960938 4.816406 17.070312 2.929688 C 15.183594 1.039062 12.671875 0 10 0 C 4.484375 0 0 4.484375 0 10 C 0 12.671875 1.039062 15.183594 2.929688 17.070312 C 4.816406 18.960938 7.328125 20 10 20 Z M 10 20 "/>
<path style=" stroke:none;fill-rule:nonzero;fill:rgb(100%,100%,100%);fill-opacity:1;" d="M 0.347656 10 C 0.347656 7.421875 1.351562 4.996094 3.171875 3.171875 C 4.996094 1.351562 7.421875 0.347656 10 0.347656 C 12.578125 0.347656 15.003906 1.351562 16.828125 3.171875 C 18.648438 4.996094 19.652344 7.421875 19.652344 10 C 19.652344 15.324219 15.324219 19.652344 10 19.652344 C 7.421875 19.652344 4.996094 18.648438 3.171875 16.828125 C 1.351562 15.003906 0.347656 12.578125 0.347656 10 Z M 0.347656 10 "/>
<path style=" stroke:none;fill-rule:nonzero;fill:rgb(0%,0%,0%);fill-opacity:1;" d="M 10 0.742188 C 4.886719 0.742188 0.742188 4.886719 0.742188 10 C 0.742188 15.113281 4.886719 19.257812 10 19.257812 C 15.113281 19.257812 19.257812 15.113281 19.257812 10 C 19.257812 4.886719 15.113281 0.742188 10 0.742188 Z M 10 0.742188 "/>
<path style=" stroke:none;fill-rule:nonzero;fill:rgb(100%,100%,100%);fill-opacity:1;" d="M 10 15.914062 C 6.734375 15.914062 4.085938 13.265625 4.085938 10 C 4.085938 6.734375 6.734375 4.085938 10 4.085938 C 13.265625 4.085938 15.914062 6.734375 15.914062 10 C 15.914062 13.265625 13.265625 15.914062 10 15.914062 Z M 10 15.914062 "/>
<path style=" stroke:none;fill-rule:nonzero;fill:rgb(0%,0%,0%);fill-opacity:1;" d="M 4.46875 10 L 10 10 L 10 4.46875 C 6.945312 4.46875 4.46875 6.945312 4.46875 10 Z M 10 10 L 10 15.53125 C 13.054688 15.53125 15.53125 13.054688 15.53125 10 Z M 10 10 "/>
<path style=" stroke:none;fill-rule:nonzero;fill:rgb(100%,100%,100%);fill-opacity:1;" d="M 5.65625 4.359375 C 5.460938 4.167969 5.15625 4.109375 4.871094 4.289062 C 4.925781 4.144531 4.902344 4.003906 4.875 3.921875 C 4.753906 3.699219 4.710938 3.671875 4.609375 3.585938 C 4.28125 3.3125 3.9375 3.546875 3.691406 3.839844 L 2.503906 5.257812 L 4.371094 6.824219 L 5.625 5.332031 C 5.910156 4.988281 5.957031 4.652344 5.65625 4.359375 Z M 10.308594 3.6875 L 10.953125 1.984375 L 10.953125 3.6875 L 11.4375 3.6875 L 11.4375 1.25 L 10.707031 1.25 L 10.039062 2.992188 L 10.046875 2.992188 L 9.378906 1.25 L 8.648438 1.25 L 8.648438 3.6875 L 9.136719 3.6875 L 9.136719 1.984375 L 9.777344 3.6875 Z M 16.867188 4.699219 L 15.949219 6 L 17.375 5.324219 L 17.75 5.789062 L 15.507812 6.875 L 15.066406 6.324219 L 15.949219 5.035156 L 15.941406 5.027344 L 14.5 5.625 L 14.050781 5.074219 L 15.582031 3.109375 L 15.957031 3.574219 L 15 4.828125 L 16.464844 4.199219 Z M 16.867188 4.699219 "/>
<path style=" stroke:none;fill-rule:nonzero;fill:rgb(0%,0%,0%);fill-opacity:1;" d="M 3.953125 4.191406 C 4.035156 4.09375 4.222656 4.097656 4.339844 4.199219 C 4.472656 4.308594 4.472656 4.464844 4.386719 4.570312 L 3.679688 5.414062 L 3.238281 5.042969 Z M 5.207031 5.183594 L 4.464844 6.070312 L 3.996094 5.679688 L 4.746094 4.785156 C 4.832031 4.683594 5.019531 4.65625 5.148438 4.761719 C 5.292969 4.882812 5.304688 5.066406 5.207031 5.183594 Z M 5.207031 5.183594 "/>
</g>
</svg>
